HIERARCHY
ROOT Bip001_Pelvis
{
  OFFSET 34.4345 95.6767 -26.8758
  CHANNELS 6 Xposition Yposition Zposition Zrotation Xrotation Yrotation
  JOINT Bip001_Spine
  {
    OFFSET 1.4188e-005 10.2191 -0.0116013
    CHANNELS 3 Zrotation Xrotation Yrotation
    JOINT Bip001_L_Thigh
    {
      OFFSET 11.0458 -10.2192 0.0116197
      CHANNELS 3 Zrotation Xrotation Yrotation
      JOINT Bip001_L_Calf
      {
        OFFSET -0.707118 -44.0221 0.360014
        CHANNELS 3 Zrotation Xrotation Yrotation
        JOINT Bip001_L_Foot
        {
          OFFSET -0.651902 -40.5938 -3.56146
          CHANNELS 3 Zrotation Xrotation Yrotation
          JOINT Bip001_L_Toe0
          {
            OFFSET 0.0530839 -10.2181 13.1504
            CHANNELS 3 Zrotation Xrotation Yrotation
            End Site
            {
              OFFSET -1.02532e-005 0 7.55606
            }
          }
        }
      }
    }
    JOINT Bip001_R_Thigh
    {
      OFFSET -11.0458 -10.2191 0.0115893
      CHANNELS 3 Zrotation Xrotation Yrotation
      JOINT Bip001_R_Calf
      {
        OFFSET 0.706994 -44.0221 0.35984
        CHANNELS 3 Zrotation Xrotation Yrotation
        JOINT Bip001_R_Foot
        {
          OFFSET 0.651786 -40.5938 -3.5613
          CHANNELS 3 Zrotation Xrotation Yrotation
          JOINT Bip001_R_Toe0
          {
            OFFSET -0.0531479 -10.2181 13.1504
            CHANNELS 3 Zrotation Xrotation Yrotation
            End Site
            {
              OFFSET -1.02894e-005 0 7.55606
            }
          }
        }
      }
    }
    JOINT Bip001_Spine1
    {
      OFFSET 1.87041e-005 14.5736 1.08638
      CHANNELS 3 Zrotation Xrotation Yrotation
      JOINT Bip001_Spine2
      {
        OFFSET 2.24614e-005 14.5058 -1.69078
        CHANNELS 3 Zrotation Xrotation Yrotation
        JOINT Bip001_Neck
        {
          OFFSET 2.20278e-005 15.3945 -0.489414
          CHANNELS 3 Zrotation Xrotation Yrotation
          JOINT Bip001_L_Clavicle
          {
            OFFSET 6.06036 -0.000579998 0.00836775
            CHANNELS 3 Zrotation Xrotation Yrotation
            JOINT Bip001_L_UpperArm
            {
              OFFSET 11.5509 -0.0600302 0.00193952
              CHANNELS 3 Zrotation Xrotation Yrotation
              JOINT Bip001_L_Forearm
              {
                OFFSET 25.9523 0.0806089 -2.15551
                CHANNELS 3 Zrotation Xrotation Yrotation
                JOINT Bip001_L_Hand
                {
                  OFFSET 32.2475 0.153767 1.63968
                  CHANNELS 3 Zrotation Xrotation Yrotation
                  JOINT Bip001_L_Finger0
                  {
                    OFFSET 6.04639 -2.20976 5.90322
                    CHANNELS 3 Zrotation Xrotation Yrotation
                    End Site
                    {
                      OFFSET 4.22375 -1.43895 0.606485
                    }
                  }
                  JOINT Bip001_L_Finger1
                  {
                    OFFSET 11.0826 -0.704819 -0.198153
                    CHANNELS 3 Zrotation Xrotation Yrotation
                    End Site
                    {
                      OFFSET 6.20027 -0.397518 -0.0787166
                    }
                  }
                }
              }
            }
          }
          JOINT Bip001_R_Clavicle
          {
            OFFSET -6.06037 -0.000563197 0.00835105
            CHANNELS 3 Zrotation Xrotation Yrotation
            JOINT Bip001_R_UpperArm
            {
              OFFSET -11.5509 -0.0599978 0.00190698
              CHANNELS 3 Zrotation Xrotation Yrotation
              JOINT Bip001_R_Forearm
              {
                OFFSET -25.9523 0.0806822 -2.15589
                CHANNELS 3 Zrotation Xrotation Yrotation
                JOINT Bip001_R_Hand
                {
                  OFFSET -32.2475 0.153859 1.63989
                  CHANNELS 3 Zrotation Xrotation Yrotation
                  JOINT Bip001_R_Finger0
                  {
                    OFFSET -6.04641 -2.20976 5.90317
                    CHANNELS 3 Zrotation Xrotation Yrotation
                    End Site
                    {
                      OFFSET -4.22376 -1.43895 0.60647
                    }
                  }
                  JOINT Bip001_R_Finger1
                  {
                    OFFSET -11.0826 -0.704794 -0.198182
                    CHANNELS 3 Zrotation Xrotation Yrotation
                    End Site
                    {
                      OFFSET -6.20028 -0.397504 -0.0787333
                    }
                  }
                }
              }
            }
          }
          JOINT Bip001_Head
          {
            OFFSET 1.09673e-005 11.2744 2.05948
            CHANNELS 3 Zrotation Xrotation Yrotation
            End Site
            {
              OFFSET 2.89576e-005 20.8808 -2.77728e-005
            }
          }
        }
      }
    }
  }
}
MOTION
Frames:	16
Frame Time:	0.04
33.4091 95.9077 -28.1222 0.666249 -0.698905 0.323339 -0.345879 2.02584 0.352291 4.3633 -1.53999 8.97355 0.0406002 6.16677 -8.83503 3.28741 -3.56314 -0.0632443 0.898248 -4.71638 -0.269271 -3.82796 -2.83659 -0.279333 0.575594 10.9244 0.167656 -5.69047 -9.63534 1.64792 2.16234 -7.30416 2.19623 -0.681448 4.02367 0.708144 -0.681262 4.02368 0.708259 3.84314 -6.15039 -2.31965 -27.5096 7.20739 -1.09437 -56.0049 37.0928 0.497088 12.7416 7.21485 -17.6338 9.24091 0.996032 -6.03195 3.18055e-015 -9.54166e-015 -0 3.18055e-015 -9.54167e-015 3.18055e-015 20.2729 12.7262 16.5403 69.3496 45.9373 -14.7126 -19.3643 1.39945 14.6014 -0.444589 -0.700027 5.1924 1.59028e-015 -6.36111e-015 -0 8.82782e-032 -6.36111e-015 7.95139e-016 -3.52893 -8.69403 -0.801612 
33.4175 95.9715 -28.1281 0.625459 -0.775481 0.212691 -0.345992 2.02559 0.355526 4.44083 -1.00925 3.14747 -0.669768 5.09692 -2.82204 3.1287 -3.08773 -0.0632138 0.905367 -4.61383 -0.279876 -3.80488 -2.57933 -0.297438 0.587071 10.4477 0.250376 -5.67524 -9.36969 1.70494 2.16483 -7.30231 2.21635 -0.683336 4.06243 0.728034 -0.683146 4.06242 0.728111 3.88031 -6.28776 -2.32459 -27.5081 7.30712 -0.978174 -56.0362 37.2145 0.347158 12.7344 7.25666 -17.3808 9.06808 1.04641 -5.99077 3.18055e-015 9.54166e-015 1.59028e-015 -5.29669e-031 6.36111e-015 4.77083e-015 20.1328 12.781 16.3328 69.4683 46.2646 -14.0761 -19.4342 1.70022 13.9304 0.269824 -0.672564 5.51719 -3.18055e-015 6.36111e-015 1.19271e-015 -3.18055e-015 0 7.95139e-016 -3.52152 -8.62439 -0.801463 
33.4559 95.9539 -28.1692 0.647839 -0.722401 0.12414 -0.34925 2.02237 0.356329 4.37717 -1.15875 4.4487 -0.526242 5.31862 -4.06997 3.39031 -3.0616 -0.0723379 0.997435 -4.7694 -0.358982 -3.85046 -2.73897 -0.191697 0.619369 10.6022 0.262476 -5.67871 -9.42729 1.67067 2.16473 -7.29961 2.2164 -0.711912 4.04514 0.730052 -0.711945 4.04516 0.730376 3.87254 -6.36347 -2.32952 -27.4941 7.35315 -0.872322 -56.1371 37.2804 0.337868 12.6964 6.97899 -17.3451 9.12047 1.05757 -5.85015 -1.76556e-031 -3.18055e-015 -3.18055e-015 -3.18055e-015 -6.36111e-015 -1.59028e-015 20.0641 12.7686 16.0939 70.0723 46.8578 -13.8582 -19.9702 1.631 13.3001 0.656106 -0.835957 5.39154 1.59028e-015 -3.18055e-015 1.19271e-015 1.59028e-015 0 3.97569e-016 -3.44438 -8.66249 -0.817192 
33.4842 95.9469 -28.1949 0.636975 -0.660966 0.158019 -0.355122 2.02056 0.356678 4.37097 -1.264 4.65068 -0.504556 5.38787 -4.33784 3.49219 -3.06269 -0.0750894 1.00789 -4.83771 -0.36938 -3.85224 -2.8118 -0.208971 0.613923 10.6207 0.19359 -5.66102 -9.43542 1.71092 2.16547 -7.31881 2.21644 -0.723276 4.02915 0.730546 -0.72323 4.02916 0.73107 3.9765 -6.42121 -2.37915 -27.5691 7.38662 -0.845121 -56.2382 37.3396 0.334501 12.8731 7.36318 -17.4231 9.24145 0.865129 -6.02981 -3.18055e-015 0 4.77083e-015 -3.18055e-015 -3.18056e-015 6.36111e-015 19.8724 12.7455 15.886 70.5137 47.0269 -13.6255 -20.4128 1.8408 12.7634 0.604787 -0.837672 5.53987 -1.59028e-015 0 7.95139e-016 -1.59028e-015 -6.36111e-015 3.97569e-016 -3.48451 -8.65221 -0.834693 
33.489 95.9516 -28.1895 0.601444 -0.673342 0.275797 -0.358978 2.01966 0.344407 4.4433 -1.27361 4.3642 -0.577099 5.41686 -4.14766 3.39401 -3.14512 -0.0705712 0.953494 -4.75164 -0.309595 -3.7954 -2.7135 -0.398328 0.54923 10.4962 0.193699 -5.62984 -9.40295 1.80618 2.16572 -7.32573 2.2163 -0.728719 4.02991 0.702475 -0.728703 4.0299 0.702133 4.09082 -6.38427 -2.41995 -27.654 7.33989 -0.872177 -56.3099 37.4957 0.290933 13.0383 7.81737 -17.3667 9.39437 0.740935 -6.21478 9.54166e-015 0 -1.59028e-015 9.54166e-015 0 -0 19.7293 12.6564 15.7444 70.4562 46.6553 -13.3986 -20.4973 2.36345 12.7371 -0.0364537 -0.806906 5.57049 -1.59028e-015 -3.18055e-015 -0 -3.18055e-015 -3.18056e-015 -3.97569e-016 -3.49816 -8.62082 -0.842095 
33.4875 95.955 -28.1739 0.55463 -0.697457 0.391862 -0.359857 2.02339 0.331891 4.546 -1.29114 4.02507 -0.690266 5.45418 -3.85851 3.37495 -3.20652 -0.0694798 0.953894 -4.69164 -0.331165 -3.7055 -2.59405 -0.47425 0.473555 10.3488 0.161587 -5.62596 -9.35077 1.83259 2.16605 -7.33737 2.21537 -0.733785 4.04374 0.670142 -0.733837 4.04374 0.670117 4.14544 -6.35534 -2.44285 -27.69 7.29585 -0.851026 -56.2744 37.6829 0.202172 13.1694 7.98035 -17.3369 9.33971 0.79654 -6.26843 3.18055e-015 3.18055e-015 -0 6.36111e-015 0 -1.59028e-015 19.6264 12.5968 15.6844 70.3719 46.4089 -13.4396 -20.4699 2.56046 12.9498 -0.185955 -1.04915 5.41116 -4.41391e-032 -3.18055e-015 -7.95139e-016 -2.20695e-032 -3.18056e-015 -3.97569e-016 -3.45316 -8.65426 -0.859416 
33.5011 95.9594 -28.1655 0.523286 -0.687523 0.50041 -0.360967 2.02605 0.332264 4.59553 -1.32796 3.77851 -0.741448 5.47483 -3.67655 3.35696 -3.23267 -0.0685555 0.974379 -4.71308 -0.373629 -3.66949 -2.5811 -0.597441 0.44875 10.3416 0.207411 -5.63215 -9.3105 1.81342 2.17893 -7.3962 2.21856 -0.740517 4.04458 0.669214 -0.740462 4.04459 0.669248 4.20846 -6.32633 -2.49688 -27.7946 7.24798 -0.837997 -56.1414 37.7351 0.208233 13.2804 8.01434 -17.4381 9.26564 0.808495 -6.2567 -1.76556e-031 6.36111e-015 1.59028e-015 -6.36111e-015 6.36111e-015 1.59028e-015 19.6006 12.5811 15.6945 70.2201 46.2034 -13.5981 -20.4876 2.67707 13.0696 -0.335666 -1.28411 5.45148 -0 -3.18055e-015 -0 -3.18055e-015 0 7.95139e-016 -3.48881 -8.7324 -0.892268 
33.5135 95.9387 -28.1564 0.519992 -0.645148 0.582044 -0.361877 2.02888 0.332943 4.57545 -1.4978 4.92864 -0.610454 5.7423 -4.99979 3.60826 -3.2219 -0.0673529 0.988638 -4.86261 -0.34624 -3.68281 -2.63949 -0.793591 0.432009 10.4315 0.247464 -5.62783 -9.40727 1.88217 2.18077 -7.38104 2.22631 -0.741678 4.04632 0.668556 -0.74151 4.04633 0.668652 4.11568 -6.3813 -2.51189 -27.6776 7.29433 -0.796428 -56.1272 37.7552 0.20494 13.3299 7.91908 -17.5235 9.31055 0.778915 -6.19758 6.36111e-015 3.18055e-015 -1.59028e-015 3.18055e-015 3.18056e-015 -1.59028e-015 19.7505 12.6684 15.7387 70.245 46.3792 -13.9285 -20.4809 2.29645 13.0536 -0.646149 -1.37693 5.358 -1.59028e-015 9.54166e-015 1.59028e-015 -1.32417e-031 9.54167e-015 7.95139e-016 -3.41457 -8.68548 -0.942126 
33.5092 95.9375 -28.1313 0.514974 -0.650777 0.657436 -0.362627 2.03781 0.33386 4.61832 -1.54404 5.07907 -0.625855 5.84118 -5.16264 3.45909 -3.34245 -0.0643351 0.984587 -4.77967 -0.366203 -3.65965 -2.60168 -0.956713 0.391552 10.4094 0.28406 -5.6211 -9.41502 1.92642 2.18336 -7.38505 2.2375 -0.742756 4.07302 0.668202 -0.74247 4.07303 0.668344 4.02632 -6.39735 -2.49316 -27.5523 7.31024 -0.763858 -56.1076 37.8075 0.16617 13.3766 7.80071 -17.5881 9.22673 0.833828 -6.13668 9.54166e-015 -3.18055e-015 -3.18055e-015 9.54166e-015 -3.18056e-015 -1.59028e-015 19.9075 12.7691 15.9551 70.0962 46.1591 -14.1083 -20.4177 2.17058 13.1359 -0.763745 -1.47637 5.31658 1.59028e-015 3.18055e-015 -7.95139e-016 3.18055e-015 6.36111e-015 -3.97569e-016 -3.36351 -8.71417 -0.954157 
33.4908 95.948 -28.1046 0.50863 -0.653191 0.707862 -0.36318 2.04598 0.334943 4.62456 -1.40328 3.65095 -0.763844 5.4937 -3.77563 3.64901 -3.0323 -0.077188 1.12712 -4.91234 -0.48849 -3.62634 -2.53718 -1.10332 0.355296 10.3138 0.332039 -5.61461 -9.39025 1.97262 2.18226 -7.36719 2.22747 -0.743589 4.08998 0.670554 -0.743207 4.08999 0.670814 3.9434 -6.40733 -2.48588 -27.4693 7.32165 -0.74466 -56.0902 37.9172 0.212271 13.3019 7.40444 -17.692 9.17412 0.872828 -6.06184 3.18055e-015 -9.54166e-015 3.18055e-015 3.18055e-015 -6.36111e-015 3.18055e-015 20.0054 12.8495 16.1625 69.9386 45.9393 -14.1001 -20.3798 2.13269 13.0802 -0.891231 -1.54405 5.41194 1.59028e-015 -9.54166e-015 -1.59028e-015 3.18055e-015 -9.54167e-015 -1.19271e-015 -3.31677 -8.6653 -0.973105 
33.4706 95.9454 -28.0824 0.502592 -0.640019 0.758754 -0.363509 2.04794 0.336123 4.64411 -1.45839 3.77349 -0.731966 5.59192 -3.95788 3.55491 -3.16393 -0.0714842 1.02519 -4.81482 -0.402815 -3.60253 -2.52622 -1.2344 0.326886 10.3085 0.329292 -5.60084 -9.42073 2.05016 2.18122 -7.3672 2.21088 -0.744357 4.09864 0.676852 -0.743889 4.09864 0.676901 3.90485 -6.36914 -2.48175 -27.4295 7.29323 -0.771608 -56.1118 38.0074 0.305466 13.2933 7.13867 -17.7869 9.08464 0.788782 -6.0254 -3.18055e-015 -6.36111e-015 -0 -3.18055e-015 -9.54167e-015 -0 20.0452 12.8861 16.4007 69.7632 45.6208 -13.8928 -20.4315 2.18978 12.9504 -1.1479 -1.3792 5.46849 4.77083e-015 -3.18055e-015 -1.59028e-015 1.59028e-015 -3.18056e-015 -1.19271e-015 -3.2841 -8.67759 -0.987708 
33.4457 95.9392 -28.0514 0.465634 -0.655066 0.785286 -0.363658 2.0496 0.337498 4.7245 -1.52671 4.34712 -0.70332 5.7951 -4.53423 3.39745 -3.36553 -0.0592486 0.999744 -4.75333 -0.38748 -3.53721 -2.47978 -1.27036 0.292731 10.2737 0.269109 -5.59095 -9.41033 2.10381 2.19422 -7.42394 2.24776 -0.740964 4.11555 0.692849 -0.740722 4.11555 0.69283 3.80712 -6.32077 -2.47751 -27.3469 7.25405 -0.782003 -56.1315 38.0648 0.414979 13.2238 6.62076 -17.9091 9.0089 0.934771 -5.87161 -6.36111e-015 6.36111e-015 -1.59028e-015 -6.36111e-015 6.36111e-015 -0 20.2194 12.9571 16.7066 69.2794 44.6769 -13.6972 -20.563 2.69687 13.0976 -1.46137 -1.3412 5.64926 -4.41391e-032 -3.18055e-015 -7.95139e-016 0 0 -7.95139e-016 -3.12283 -8.82723 -1.03657 
33.4192 95.9224 -28.0382 0.453698 -0.640288 0.894746 -0.33551 2.0508 0.340729 4.69818 -1.59568 4.56714 -0.685025 5.85781 -4.91658 3.99128 -3.026 -0.0860125 1.25891 -5.14417 -0.578515 -3.51983 -2.46376 -1.39066 0.250393 10.2839 0.154297 -5.56553 -9.48018 2.18342 2.20799 -7.4799 2.27166 -0.684262 4.11165 0.699574 -0.684216 4.11166 0.699218 3.24425 -6.54636 -2.47659 -26.8382 7.48059 -0.635928 -56.3131 38.252 0.530988 13.2077 6.16804 -17.9979 8.93491 1.01671 -5.84408 0 6.36111e-015 -0 2.64834e-031 9.54167e-015 -1.59028e-015 20.4609 13.1388 16.7403 68.5481 43.9368 -13.3686 -19.8588 2.73125 13.7854 -2.57683 -1.07525 5.86079 1.59028e-015 0 -7.95139e-016 1.59028e-015 0 -0 -2.70039 -8.56053 -1.22816 
33.3793 95.9301 -28.0251 0.412465 -0.556901 1.15087 -0.324373 2.05138 0.330149 4.85014 -1.87038 4.42271 -0.746641 6.23435 -4.8806 3.15056 -3.70035 -0.0411544 0.916455 -4.54865 -0.313833 -3.44257 -2.38533 -1.99876 0.127901 10.0785 0.172108 -5.45804 -9.46331 2.47733 2.21925 -7.52082 2.29798 -0.661296 4.1033 0.672586 -0.661297 4.1033 0.672586 2.80022 -6.90381 -2.5381 -26.1101 7.74482 -0.244509 -56.646 38.4539 0.521174 13.3292 5.35823 -18.262 8.70419 1.25708 -5.54171 -3.18055e-015 -6.36111e-015 -0 -6.36111e-015 -6.36111e-015 1.59028e-015 20.8774 13.598 16.9386 65.9627 39.3324 -12.5366 -20.8962 5.46701 16.0495 -0.53024 0.613635 7.74692 -3.18055e-015 3.18055e-015 7.95139e-016 -3.18055e-015 6.36111e-015 -0 -2.33786 -8.21761 -1.45089 
33.4062 95.9195 -28.0899 0.509323 -0.336661 1.37024 -0.343851 2.02611 0.323875 4.84666 -2.21559 5.75143 -0.769891 6.43985 -6.35591 3.2254 -3.74675 -0.0415787 0.925683 -4.52667 -0.331082 -3.51367 -2.67353 -2.11027 0.0844334 10.2788 0.0880377 -5.47373 -9.53563 2.42212 2.24346 -7.59863 2.3202 -0.6998 4.05023 0.662817 -0.699718 4.05025 0.661719 2.71463 -7.39259 -2.65193 -25.8361 8.08665 0.236731 -57.0385 38.1665 0.921096 13.6397 4.59876 -19.1566 8.75568 1.36467 -5.17032 8.82781e-032 3.18055e-015 -1.59028e-015 -3.18055e-015 0 -0 20.9821 14.1802 17.1909 63.5004 32.7521 -11.8939 -25.3369 8.3706 18.9028 0.32972 1.96849 8.25657 -3.18055e-015 -3.18055e-015 -7.95139e-016 -3.18055e-015 0 -7.95139e-016 -2.30262 -7.94036 -1.5922 
33.5374 95.9092 -28.2216 0.791199 0.0261839 1.56662 -0.417747 1.94535 0.319408 4.57512 -2.61001 6.60781 -0.711965 6.47311 -7.35755 3.11847 -3.7658 -0.0423059 0.850513 -4.41336 -0.284883 -3.82352 -3.18587 -2.14308 0.121797 10.6816 0.00603057 -5.52676 -9.68115 2.25305 2.28451 -7.71742 2.35726 -0.848327 3.88832 0.651627 -0.847813 3.88833 0.652615 2.7978 -7.48553 -2.7501 -25.7203 8.12646 0.349349 -57.3924 37.7329 1.55594 13.7402 4.07315 -20.2159 9.32271 1.37021 -5.03433 -0 -1.27222e-014 -0 6.36111e-015 -6.36111e-015 -1.59028e-015 20.4052 14.1796 17.1467 60.2757 25.3893 -10.6276 -29.1567 10.5772 24.5596 -7.18761 1.94116 5.60055 -3.18055e-015 -3.18055e-015 -0 -0 -3.18056e-015 -0 -2.31381 -7.95105 -1.66526 
